<?xml version="1.0" encoding="UTF-8"?>
<svg width="227.86mm" height="275.58mm" version="1.1" viewBox="0 0 227.86 275.58" xmlns="http://www.w3.org/2000/svg" xmlnsCc="http://creativecommons.org/ns#" xmlnsDc="http://purl.org/dc/elements/1.1/" xmlnsRdf="http://www.w3.org/1999/02/22-rdf-syntax-ns#">
 <metadata>
  <rdfRDF>
   <ccWork rdfAbout="">
    <dcFormat>image/svg+xml</dcFormat>
    <dcType rdfResource="http://purl.org/dc/dcmitype/StillImage"/>
    <dcTitle/>
   </ccWork>
  </rdfRDF>
 </metadata>
 <g transform="translate(286.21 -64.234)" fill="#fff" opacity=".995">
  <circle cx="-166.59" cy="203.81" r="100.51" opacity=".995" stroke="#ff6300" stroke-width="15.49"/>
  <circle cx="-176.3" cy="198.48" r="100.51" stroke="#f00" stroke-width="15.49"/>
  <path d="m-190.53 163.08-24.786-14.373-20.817 19.687 6.0105-28.014-25.156-13.714 28.5-2.9405 5.2692-28.163 11.604 26.197 28.413-3.6916-21.329 19.131z" stroke="#ff6300" stroke-width="18.7"/>
  <path d="m-190.53 163.08-24.786-14.373-20.817 19.687 6.0105-28.014-25.156-13.714 28.5-2.9405 5.2692-28.163 11.604 26.197 28.413-3.6916-21.329 19.131z" stroke="#ff6300" stroke-width="18.7"/>
  <path d="m-195.83 158.55-24.786-14.373-20.817 19.687 6.0105-28.014-25.156-13.714 28.5-2.9405 5.2692-28.163 11.604 26.197 28.413-3.6916-21.329 19.131z" stroke="#ff1c00" stroke-width="8.5"/>
  <path d="m-121.74 202.39-16.237-3.6705-8.128 14.528-1.5268-16.577-16.329-3.2407 15.294-6.5746-1.9637-16.531 10.979 12.514 15.115-6.9759-8.5085 14.308z" stroke="#f70" stroke-width="18.7"/>
  <path d="m-126.28 196.34-16.237-3.6705-8.128 14.528-1.5268-16.577-16.329-3.2407 15.294-6.5746-1.9637-16.531 10.979 12.514 15.115-6.9759-8.5085 14.308z" stroke="#ff1c00" stroke-width="5.3"/>
  <path d="m-167.86 321.83 3.3789-2.2102-1.1603-3.8672 3.1461 2.5305 3.3194-2.2986-1.4345 3.7741 3.2118 2.4466-4.0327-0.19798-1.3344 3.8106-1.0579-3.8965z" stroke="#f70" stroke-width="8.3"/>
  <path d="m-117.66 274.28-3.9636-3.4153-4.3998 2.8313 2.0234-4.825-4.0523-3.3095 5.2141 0.43332 1.8953-4.8767 1.1991 5.0928 5.2237 0.29558-4.473 2.7142z" stroke="#f70" stroke-width="11.6"/>
  <path d="m-122.2 270.5-3.9636-3.4153-4.3998 2.8313 2.0234-4.825-4.0523-3.3095 5.2141 0.43332 1.8953-4.8767 1.1991 5.0928 5.2237 0.29557-4.473 2.7142z" stroke="#ff0c00" stroke-width="7.9"/>
  <path d="m-171.64 321.08 3.3789-2.2102-1.1603-3.8672 3.1461 2.5305 3.3194-2.2986-1.4344 3.7741 3.2118 2.4466-4.0327-0.19798-1.3344 3.8106-1.0579-3.8965z" stroke="#ff1700" stroke-width="3.7"/>
 </g>
</svg>
